<svg width="121" height="41" viewBox="0 0 121 41" fill="none" xmlns="http://www.w3.org/2000/svg">
<g clip-path="url(#clip0_401_1104)">
<path d="M27.9289 8.36555C27.8063 5.84026 26.8434 3.77278 24.8837 2.17933C21.8312 -0.295746 15.3364 -0.589625 13.3457 5.14766C12.6206 7.24173 12.4419 9.37272 12.4862 11.5421C12.501 12.3351 12.2263 12.5419 11.479 12.4976C10.3833 12.437 9.28011 12.4341 8.18139 12.4799C6.55693 12.5507 4.96053 12.8564 3.54873 13.7263C0.246659 15.7627 -1.00565 20.5844 0.886104 24.2867C2.11478 26.6938 3.95189 28.3139 6.8641 28.4527C8.36155 28.5265 9.84571 28.5029 11.3373 28.4335C12.7328 28.3685 12.7299 28.401 12.6664 29.7523C12.6147 31.0592 12.5039 32.3647 12.6782 33.6746C13.0503 36.4804 14.2244 38.7532 16.9446 39.9213C17.683 40.2388 18.7551 40.4574 19.8302 40.5002V38.8965C19.8303 38.5521 19.7116 38.2182 19.4943 37.9511C19.2769 37.684 18.9742 37.5 18.637 37.43H18.6252C18.0507 37.3104 17.2444 36.8703 16.8722 36.4051C15.648 34.8796 15.4885 33.0735 15.5638 31.2246C15.6317 29.5795 15.7705 27.9388 15.8296 26.2966C15.8695 25.1787 15.7395 25.0974 14.629 25.223C12.4138 25.4725 10.1913 25.5183 7.96873 25.6187C5.57192 25.7295 3.52511 24.046 3.17806 21.5325C2.86646 19.2465 3.6211 16.1364 7.24954 15.6712C8.01303 15.5708 8.77062 15.5973 9.52969 15.5545C11.3565 15.4497 13.1788 15.7982 15.0085 15.6121C15.4914 15.5634 15.6288 15.3729 15.617 14.9224C15.5933 14.0083 15.6081 13.0927 15.6081 12.1756C15.5608 10.7461 15.4944 9.31069 15.7794 7.89299C16.0999 6.30102 16.5577 4.75483 18.2146 4.05336C21.1386 2.82173 24.2797 4.81981 24.6445 7.99636C24.7922 9.29002 24.7759 13.7558 24.7804 15.0273C24.7732 15.2761 25.1077 15.3463 25.2436 15.1379C25.662 14.496 26.1718 13.9156 26.6293 13.3024C27.381 12.3012 27.9584 11.2896 27.9584 10.0816C27.9584 9.40373 27.9495 8.78496 27.9289 8.36555Z" fill="#6AC9FD"/>
<path d="M33.5005 25.9301C32.2394 26.1826 30.9634 26.2255 29.6816 26.2255C29.0909 26.2255 28.8782 25.9774 28.8118 25.428C28.6641 24.1609 28.4042 22.9027 28.4204 21.9649C28.3806 19.8044 28.5843 18.0618 30.098 16.7962C32.4609 14.8336 36.3537 16.0121 37.5794 19.0409C38.8878 22.281 37.163 25.1843 33.5005 25.9301ZM40.4547 18.1829C39.2083 14.869 35.9668 12.6967 32.4801 12.8429C29.2312 12.9758 26.6276 15.1348 25.7224 18.5654C25.1449 20.7643 25.585 22.9795 25.7563 25.1991L25.7652 25.3128C25.9394 27.4467 26.4238 29.5704 26.124 31.7397C25.7947 34.1026 24.6561 36.1701 22.4513 37.4002C22.3947 37.4322 22.3359 37.4603 22.2756 37.4844C22.0035 37.5966 21.7714 37.7879 21.6095 38.0336C21.4475 38.2793 21.3632 38.568 21.3673 38.8622V40.4867C21.7503 40.478 22.1325 40.4469 22.5118 40.3937C24.7432 40.0983 26.4238 38.5462 27.62 36.619C28.8162 34.6918 29.336 32.5357 29.3035 30.3087C29.2917 29.4729 29.432 29.2071 30.2856 29.213C31.087 29.2193 31.8879 29.1699 32.6824 29.0653C33.5182 28.9547 34.3452 28.7859 35.1575 28.5602C39.7724 27.2607 42.1397 22.6797 40.4547 18.1829Z" fill="#3085D4"/>
</g>
<path d="M120.522 6.6582L114.721 17.8311V24.1868H111.846V17.8311L106.02 6.6582H109.223L113.283 15.2585L117.344 6.6582H120.522Z" fill="#3085D4"/>
<path d="M99.6828 15.4351L105.131 24.1868H101.902L97.9426 17.8311L94.2351 24.1868H91.0321L96.4798 15.4351L91.0068 6.6582H94.2351L98.22 13.0643L101.953 6.6582H105.156L99.6828 15.4351Z" fill="#3085D4"/>
<path d="M83.263 24.3637C81.632 24.3637 80.1272 23.9854 78.7485 23.2288C77.3865 22.4553 76.302 21.3877 75.495 20.0257C74.7047 18.647 74.3096 17.1001 74.3096 15.3851C74.3096 13.6701 74.7047 12.1316 75.495 10.7696C76.302 9.40771 77.3865 8.34843 78.7485 7.5918C80.1272 6.81836 81.632 6.43164 83.263 6.43164C84.9108 6.43164 86.4156 6.81836 87.7776 7.5918C89.1563 8.34843 90.2408 9.40771 91.0311 10.7696C91.8213 12.1316 92.2164 13.6701 92.2164 15.3851C92.2164 17.1001 91.8213 18.647 91.0311 20.0257C90.2408 21.3877 89.1563 22.4553 87.7776 23.2288C86.4156 23.9854 84.9108 24.3637 83.263 24.3637ZM83.263 21.8669C84.4232 21.8669 85.4572 21.6062 86.3652 21.085C87.2731 20.547 87.9793 19.7903 88.4837 18.8151C89.005 17.8231 89.2656 16.6798 89.2656 15.3851C89.2656 14.0904 89.005 12.9555 88.4837 11.9802C87.9793 11.005 87.2731 10.2568 86.3652 9.73559C85.4572 9.21435 84.4232 8.95374 83.263 8.95374C82.1028 8.95374 81.0688 9.21435 80.1608 9.73559C79.2529 10.2568 78.5383 11.005 78.017 11.9802C77.5126 12.9555 77.2604 14.0904 77.2604 15.3851C77.2604 16.6798 77.5126 17.8231 78.017 18.8151C78.5383 19.7903 79.2529 20.547 80.1608 21.085C81.0688 21.6062 82.1028 21.8669 83.263 21.8669Z" fill="#3085D4"/>
<path d="M69.9524 24.1868L65.9171 17.1753H63.7228V24.1868H60.8477V6.6582H66.9007C68.2458 6.6582 69.3807 6.8936 70.3055 7.36439C71.2471 7.83518 71.9449 8.4657 72.3988 9.25596C72.8696 10.0462 73.105 10.9289 73.105 11.9042C73.105 13.0475 72.7688 14.09 72.0962 15.0316C71.4405 15.9563 70.4232 16.5868 69.0445 16.9231L73.3825 24.1868H69.9524ZM63.7228 14.8802H66.9007C67.9768 14.8802 68.7838 14.6112 69.3219 14.0732C69.8768 13.5351 70.1542 12.8121 70.1542 11.9042C70.1542 10.9962 69.8852 10.29 69.3471 9.7856C68.8091 9.26437 67.9936 9.00375 66.9007 9.00375H63.7228V14.8802Z" fill="#3085D4"/>
<path d="M59.6177 11.8789C59.6177 12.7701 59.4076 13.6108 58.9872 14.401C58.5669 15.1913 57.8943 15.8386 56.9695 16.343C56.0448 16.8307 54.8594 17.0745 53.4134 17.0745H50.2355V24.1868H47.3604V6.6582H53.4134C54.7585 6.6582 55.8934 6.8936 56.8182 7.36439C57.7598 7.81837 58.4576 8.44048 58.9115 9.23074C59.3823 10.021 59.6177 10.9037 59.6177 11.8789ZM53.4134 14.7289C54.5063 14.7289 55.3218 14.4851 55.8598 13.9975C56.3979 13.4931 56.6669 12.7869 56.6669 11.8789C56.6669 9.96215 55.5824 9.00375 53.4134 9.00375H50.2355V14.7289H53.4134Z" fill="#3085D4"/>
<path d="M58.8652 34.46V28.0098H62.7446V28.8391H59.7683V30.7557H62.4497V31.5666H59.7683V33.6307H62.763V34.46H58.8652Z" fill="#F2F2F2"/>
<path d="M111.676 34.46V28.0098H115.555V28.8391H112.579V30.7557H115.26V31.5666H112.579V33.6307H115.574V34.46H111.676Z" fill="#F2F2F2"/>
<path d="M100.854 34.46V28.0098H101.784L105.433 32.9488V28.0098H106.345V34.46H105.433L101.757 29.4749V34.46H100.854Z" fill="#F2F2F2"/>
<path d="M94.6221 34.46V28.0098H95.5251V34.46H94.6221Z" fill="#F2F2F2"/>
<path d="M87.0322 34.5699C86.4178 34.5699 85.8711 34.4286 85.3919 34.146C84.9128 33.8573 84.538 33.4641 84.2677 32.9665C83.9975 32.4628 83.8623 31.8853 83.8623 31.2341C83.8623 30.583 83.9975 30.0086 84.2677 29.511C84.538 29.0073 84.9097 28.6141 85.3827 28.3315C85.8557 28.0428 86.3994 27.8984 87.0137 27.8984C87.413 27.8984 87.7939 27.9722 88.1563 28.1196C88.5188 28.2609 88.8413 28.4605 89.1239 28.7185C89.4126 28.9704 89.6338 29.2653 89.7873 29.6032L88.9764 29.9717C88.8597 29.7199 88.7 29.5018 88.4973 29.3175C88.2946 29.1332 88.0642 28.9888 87.8062 28.8844C87.5543 28.78 87.2902 28.7278 87.0137 28.7278C86.5837 28.7278 86.1998 28.8353 85.8619 29.0503C85.524 29.2653 85.2599 29.5601 85.0694 29.9349C84.879 30.3096 84.7838 30.7427 84.7838 31.2341C84.7838 31.7256 84.879 32.1618 85.0694 32.5426C85.266 32.9235 85.5332 33.2214 85.8711 33.4365C86.2151 33.6453 86.6052 33.7498 87.0414 33.7498C87.3239 33.7498 87.5912 33.6945 87.843 33.5839C88.0949 33.4672 88.3191 33.3105 88.5157 33.1139C88.7184 32.9112 88.8812 32.6809 89.0041 32.4228L89.815 32.7822C89.6614 33.1324 89.4433 33.4426 89.1607 33.7129C88.8782 33.9832 88.5526 34.1951 88.184 34.3487C87.8215 34.4961 87.4376 34.5699 87.0322 34.5699Z" fill="#F2F2F2"/>
<path d="M78.0527 34.46V28.0098H78.9558V34.46H78.0527Z" fill="#F2F2F2"/>
<path d="M67.9961 34.46V28.0098H69.9865C70.6008 28.0098 71.1444 28.148 71.6175 28.4244C72.0966 28.6947 72.4714 29.0725 72.7416 29.5578C73.0119 30.0431 73.1471 30.6022 73.1471 31.2349C73.1471 31.8615 73.0119 32.4174 72.7416 32.9028C72.4714 33.3881 72.0966 33.7689 71.6175 34.0454C71.1444 34.3218 70.6008 34.46 69.9865 34.46H67.9961ZM68.8991 33.6123H69.9865C70.2998 33.6123 70.5916 33.5539 70.8619 33.4372C71.1322 33.3143 71.3687 33.1454 71.5714 32.9304C71.7803 32.7092 71.94 32.4543 72.0505 32.1656C72.1673 31.8769 72.2256 31.5666 72.2256 31.2349C72.2256 30.9032 72.1673 30.5929 72.0505 30.3042C71.94 30.0155 71.7803 29.7636 71.5714 29.5486C71.3687 29.3275 71.1322 29.1585 70.8619 29.0418C70.5916 28.9189 70.2998 28.8575 69.9865 28.8575H68.8991V33.6123Z" fill="#F2F2F2"/>
<path d="M47.3604 34.46V28.0098H48.3187L50.4565 31.1704L52.5851 28.0098H53.5434V34.46H52.6404V29.4657L50.4473 32.7L48.2634 29.4749V34.46H47.3604Z" fill="#F2F2F2"/>
<defs>
<clipPath id="clip0_401_1104">
<rect width="40.9983" height="40" fill="white" transform="translate(0 0.5)"/>
</clipPath>
</defs>
</svg>
