<svg width="121" height="40" viewBox="0 0 121 40" fill="none" xmlns="http://www.w3.org/2000/svg">
<g clip-path="url(#clip0_402_3032)">
<path d="M27.9289 7.86555C27.8063 5.34026 26.8434 3.27278 24.8837 1.67933C21.8312 -0.795746 15.3364 -1.08963 13.3457 4.64766C12.6206 6.74173 12.4419 8.87272 12.4862 11.0421C12.501 11.8351 12.2263 12.0419 11.479 11.9976C10.3833 11.937 9.28011 11.9341 8.18139 11.9799C6.55693 12.0507 4.96053 12.3564 3.54873 13.2263C0.246659 15.2627 -1.00565 20.0844 0.886104 23.7867C2.11478 26.1938 3.95189 27.8139 6.8641 27.9527C8.36155 28.0265 9.84571 28.0029 11.3373 27.9335C12.7328 27.8685 12.7299 27.901 12.6664 29.2523C12.6147 30.5592 12.5039 31.8647 12.6782 33.1746C13.0503 35.9804 14.2244 38.2532 16.9446 39.4213C17.683 39.7388 18.7551 39.9574 19.8302 40.0002V38.3965C19.8303 38.0521 19.7116 37.7182 19.4943 37.4511C19.2769 37.184 18.9742 37 18.637 36.93H18.6252C18.0507 36.8104 17.2444 36.3703 16.8722 35.9051C15.648 34.3796 15.4885 32.5735 15.5638 30.7246C15.6317 29.0795 15.7705 27.4388 15.8296 25.7966C15.8695 24.6787 15.7395 24.5974 14.629 24.723C12.4138 24.9725 10.1913 25.0183 7.96873 25.1187C5.57192 25.2295 3.52511 23.546 3.17806 21.0325C2.86646 18.7465 3.6211 15.6364 7.24954 15.1712C8.01303 15.0708 8.77062 15.0973 9.52969 15.0545C11.3565 14.9497 13.1788 15.2982 15.0085 15.1121C15.4914 15.0634 15.6288 14.8729 15.617 14.4224C15.5933 13.5083 15.6081 12.5927 15.6081 11.6756C15.5608 10.2461 15.4944 8.81069 15.7794 7.39299C16.0999 5.80102 16.5577 4.25483 18.2146 3.55336C21.1386 2.32173 24.2797 4.31981 24.6445 7.49636C24.7922 8.79002 24.7759 13.2558 24.7804 14.5273C24.7732 14.7761 25.1077 14.8463 25.2436 14.6379C25.662 13.996 26.1718 13.4156 26.6293 12.8024C27.381 11.8012 27.9584 10.7896 27.9584 9.58157C27.9584 8.90373 27.9495 8.28496 27.9289 7.86555Z" fill="#6AC9FD"/>
<path d="M33.5005 25.4301C32.2394 25.6826 30.9634 25.7255 29.6816 25.7255C29.0909 25.7255 28.8782 25.4774 28.8118 24.928C28.6641 23.6609 28.4042 22.4027 28.4204 21.4649C28.3806 19.3044 28.5843 17.5618 30.098 16.2962C32.4609 14.3336 36.3537 15.5121 37.5794 18.5409C38.8878 21.781 37.163 24.6843 33.5005 25.4301ZM40.4547 17.6829C39.2083 14.369 35.9668 12.1967 32.4801 12.3429C29.2312 12.4758 26.6276 14.6348 25.7224 18.0654C25.1449 20.2643 25.585 22.4795 25.7563 24.6991L25.7652 24.8128C25.9394 26.9467 26.4238 29.0704 26.124 31.2397C25.7947 33.6026 24.6561 35.6701 22.4513 36.9002C22.3947 36.9322 22.3359 36.9603 22.2756 36.9844C22.0035 37.0966 21.7714 37.2879 21.6095 37.5336C21.4475 37.7793 21.3632 38.068 21.3673 38.3622V39.9867C21.7503 39.978 22.1325 39.9469 22.5118 39.8937C24.7432 39.5983 26.4238 38.0462 27.62 36.119C28.8162 34.1918 29.336 32.0357 29.3035 29.8087C29.2917 28.9729 29.432 28.7071 30.2856 28.713C31.087 28.7193 31.8879 28.6699 32.6824 28.5653C33.5182 28.4547 34.3452 28.2859 35.1575 28.0602C39.7724 26.7607 42.1397 22.1797 40.4547 17.6829Z" fill="#3085D4"/>
</g>
<path d="M120.522 6.1582L114.721 17.3311V23.6868H111.846V17.3311L106.02 6.1582H109.223L113.283 14.7585L117.344 6.1582H120.522Z" fill="#3085D4"/>
<path d="M99.6828 14.9351L105.131 23.6868H101.902L97.9426 17.3311L94.2351 23.6868H91.0321L96.4798 14.9351L91.0068 6.1582H94.2351L98.22 12.5643L101.953 6.1582H105.156L99.6828 14.9351Z" fill="#3085D4"/>
<path d="M83.263 23.8637C81.632 23.8637 80.1272 23.4854 78.7485 22.7288C77.3865 21.9553 76.302 20.8877 75.495 19.5257C74.7047 18.147 74.3096 16.6001 74.3096 14.8851C74.3096 13.1701 74.7047 11.6316 75.495 10.2696C76.302 8.90771 77.3865 7.84843 78.7485 7.0918C80.1272 6.31836 81.632 5.93164 83.263 5.93164C84.9108 5.93164 86.4156 6.31836 87.7776 7.0918C89.1563 7.84843 90.2408 8.90771 91.0311 10.2696C91.8213 11.6316 92.2164 13.1701 92.2164 14.8851C92.2164 16.6001 91.8213 18.147 91.0311 19.5257C90.2408 20.8877 89.1563 21.9553 87.7776 22.7288C86.4156 23.4854 84.9108 23.8637 83.263 23.8637ZM83.263 21.3669C84.4232 21.3669 85.4572 21.1062 86.3652 20.585C87.2731 20.047 87.9793 19.2903 88.4837 18.3151C89.005 17.3231 89.2656 16.1798 89.2656 14.8851C89.2656 13.5904 89.005 12.4555 88.4837 11.4802C87.9793 10.505 87.2731 9.75682 86.3652 9.23559C85.4572 8.71435 84.4232 8.45374 83.263 8.45374C82.1028 8.45374 81.0688 8.71435 80.1608 9.23559C79.2529 9.75682 78.5383 10.505 78.017 11.4802C77.5126 12.4555 77.2604 13.5904 77.2604 14.8851C77.2604 16.1798 77.5126 17.3231 78.017 18.3151C78.5383 19.2903 79.2529 20.047 80.1608 20.585C81.0688 21.1062 82.1028 21.3669 83.263 21.3669Z" fill="#3085D4"/>
<path d="M69.9524 23.6868L65.9171 16.6753H63.7228V23.6868H60.8477V6.1582H66.9007C68.2458 6.1582 69.3807 6.3936 70.3055 6.86439C71.2471 7.33518 71.9449 7.9657 72.3988 8.75596C72.8696 9.54622 73.105 10.4289 73.105 11.4042C73.105 12.5475 72.7688 13.59 72.0962 14.5316C71.4405 15.4563 70.4232 16.0868 69.0445 16.4231L73.3825 23.6868H69.9524ZM63.7228 14.3802H66.9007C67.9768 14.3802 68.7838 14.1112 69.3219 13.5732C69.8768 13.0351 70.1542 12.3121 70.1542 11.4042C70.1542 10.4962 69.8852 9.79002 69.3471 9.2856C68.8091 8.76437 67.9936 8.50375 66.9007 8.50375H63.7228V14.3802Z" fill="#3085D4"/>
<path d="M59.6177 11.3789C59.6177 12.2701 59.4076 13.1108 58.9872 13.901C58.5669 14.6913 57.8943 15.3386 56.9695 15.843C56.0448 16.3307 54.8594 16.5745 53.4134 16.5745H50.2355V23.6868H47.3604V6.1582H53.4134C54.7585 6.1582 55.8934 6.3936 56.8182 6.86439C57.7598 7.31837 58.4576 7.94048 58.9115 8.73074C59.3823 9.521 59.6177 10.4037 59.6177 11.3789ZM53.4134 14.2289C54.5063 14.2289 55.3218 13.9851 55.8598 13.4975C56.3979 12.9931 56.6669 12.2869 56.6669 11.3789C56.6669 9.46215 55.5824 8.50375 53.4134 8.50375H50.2355V14.2289H53.4134Z" fill="#3085D4"/>
<path d="M58.8652 33.96V27.5098H62.7446V28.3391H59.7683V30.2557H62.4497V31.0666H59.7683V33.1307H62.763V33.96H58.8652Z" fill="#3085D4"/>
<path d="M111.676 33.96V27.5098H115.555V28.3391H112.579V30.2557H115.26V31.0666H112.579V33.1307H115.574V33.96H111.676Z" fill="#3085D4"/>
<path d="M100.854 33.96V27.5098H101.784L105.433 32.4488V27.5098H106.345V33.96H105.433L101.757 28.9749V33.96H100.854Z" fill="#3085D4"/>
<path d="M94.6221 33.96V27.5098H95.5251V33.96H94.6221Z" fill="#3085D4"/>
<path d="M87.0322 34.0699C86.4178 34.0699 85.8711 33.9286 85.3919 33.646C84.9128 33.3573 84.538 32.9641 84.2677 32.4665C83.9975 31.9628 83.8623 31.3853 83.8623 30.7341C83.8623 30.083 83.9975 29.5086 84.2677 29.011C84.538 28.5073 84.9097 28.1141 85.3827 27.8315C85.8557 27.5428 86.3994 27.3984 87.0137 27.3984C87.413 27.3984 87.7939 27.4722 88.1563 27.6196C88.5188 27.7609 88.8413 27.9605 89.1239 28.2185C89.4126 28.4704 89.6338 28.7653 89.7873 29.1032L88.9764 29.4717C88.8597 29.2199 88.7 29.0018 88.4973 28.8175C88.2946 28.6332 88.0642 28.4888 87.8062 28.3844C87.5543 28.28 87.2902 28.2278 87.0137 28.2278C86.5837 28.2278 86.1998 28.3353 85.8619 28.5503C85.524 28.7653 85.2599 29.0601 85.0694 29.4349C84.879 29.8096 84.7838 30.2427 84.7838 30.7341C84.7838 31.2256 84.879 31.6618 85.0694 32.0426C85.266 32.4235 85.5332 32.7214 85.8711 32.9365C86.2151 33.1453 86.6052 33.2498 87.0414 33.2498C87.3239 33.2498 87.5912 33.1945 87.843 33.0839C88.0949 32.9672 88.3191 32.8105 88.5157 32.6139C88.7184 32.4112 88.8812 32.1809 89.0041 31.9228L89.815 32.2822C89.6614 32.6324 89.4433 32.9426 89.1607 33.2129C88.8782 33.4832 88.5526 33.6951 88.184 33.8487C87.8215 33.9961 87.4376 34.0699 87.0322 34.0699Z" fill="#3085D4"/>
<path d="M78.0527 33.96V27.5098H78.9558V33.96H78.0527Z" fill="#3085D4"/>
<path d="M67.9961 33.96V27.5098H69.9865C70.6008 27.5098 71.1444 27.648 71.6175 27.9244C72.0966 28.1947 72.4714 28.5725 72.7416 29.0578C73.0119 29.5431 73.1471 30.1022 73.1471 30.7349C73.1471 31.3615 73.0119 31.9174 72.7416 32.4028C72.4714 32.8881 72.0966 33.2689 71.6175 33.5454C71.1444 33.8218 70.6008 33.96 69.9865 33.96H67.9961ZM68.8991 33.1123H69.9865C70.2998 33.1123 70.5916 33.0539 70.8619 32.9372C71.1322 32.8143 71.3687 32.6454 71.5714 32.4304C71.7803 32.2092 71.94 31.9543 72.0505 31.6656C72.1673 31.3769 72.2256 31.0666 72.2256 30.7349C72.2256 30.4032 72.1673 30.0929 72.0505 29.8042C71.94 29.5155 71.7803 29.2636 71.5714 29.0486C71.3687 28.8275 71.1322 28.6585 70.8619 28.5418C70.5916 28.4189 70.2998 28.3575 69.9865 28.3575H68.8991V33.1123Z" fill="#3085D4"/>
<path d="M47.3604 33.96V27.5098H48.3187L50.4565 30.6704L52.5851 27.5098H53.5434V33.96H52.6404V28.9657L50.4473 32.2L48.2634 28.9749V33.96H47.3604Z" fill="#3085D4"/>
<defs>
<clipPath id="clip0_402_3032">
<rect width="40.9983" height="40" fill="white"/>
</clipPath>
</defs>
</svg>
