<svg width="182" height="60" viewBox="0 0 182 60" fill="none" xmlns="http://www.w3.org/2000/svg">
<g clip-path="url(#clip0_494_8934)">
<path d="M42.5036 11.7983C42.3198 8.0104 40.8755 4.90916 37.936 2.519C33.3572 -1.19362 23.6149 -1.63444 20.6289 6.97148C19.5412 10.1126 19.2732 13.3091 19.3396 16.5632C19.3618 17.7527 18.9498 18.0628 17.8289 17.9964C16.1852 17.9055 14.5305 17.9011 12.8824 17.9698C10.4457 18.0761 8.05115 18.5347 5.93345 19.8394C0.98034 22.8941 -0.898122 30.1266 1.93951 35.68C3.78253 39.2908 6.53819 41.7208 10.9065 41.929C13.1527 42.0398 15.3789 42.0043 17.6162 41.9002C19.7096 41.8028 19.7051 41.8515 19.6099 43.8784C19.5324 45.8388 19.3662 47.797 19.6276 49.7619C20.1858 53.9707 21.9469 57.3798 26.0272 59.132C27.1348 59.6083 28.743 59.9361 30.3557 60.0004V57.5947C30.3557 57.0781 30.1778 56.5774 29.8518 56.1767C29.5257 55.776 29.0716 55.5 28.5658 55.395H28.5481C27.6864 55.2156 26.4769 54.5555 25.9187 53.8577C24.0823 51.5694 23.8431 48.8603 23.9561 46.0869C24.0579 43.6192 24.2662 41.1581 24.3548 38.6949C24.4146 37.018 24.2197 36.8962 22.5539 37.0845C19.2311 37.4588 15.8973 37.5275 12.5634 37.6781C8.96823 37.8443 5.89801 35.319 5.37745 31.5488C4.91005 28.1197 6.042 23.4545 11.4847 22.7568C12.6299 22.6061 13.7663 22.646 14.9049 22.5818C17.645 22.4245 20.3786 22.9473 23.1231 22.6682C23.8475 22.5951 24.0535 22.3093 24.0358 21.6337C24.0004 20.2625 24.0225 18.8891 24.0225 17.5135C23.9516 15.3692 23.8519 13.216 24.2795 11.0895C24.7602 8.70153 25.4469 6.38225 27.9323 5.33005C32.3183 3.4826 37.03 6.47972 37.5771 11.2445C37.7986 13.185 37.7743 19.8837 37.7809 21.791C37.7702 22.1641 38.2718 22.2695 38.4757 21.9568C39.1034 20.994 39.8681 20.1234 40.5543 19.2036C41.6818 17.7018 42.5479 16.1844 42.5479 14.3724C42.5479 13.3556 42.5347 12.4274 42.5036 11.7983Z" fill="#6AC9FD"/>
<path d="M50.8621 38.1432C48.9704 38.522 47.0565 38.5862 45.1337 38.5862C44.2477 38.5862 43.9287 38.2141 43.829 37.39C43.6075 35.4894 43.2176 33.6021 43.242 32.1955C43.1822 28.9547 43.4879 26.3408 45.7584 24.4424C49.3027 21.4984 55.1418 23.2661 56.9804 27.8094C58.9431 32.6695 56.3558 37.0245 50.8621 38.1432ZM61.2934 26.5224C59.4238 21.5516 54.5615 18.2931 49.3315 18.5124C44.4581 18.7117 40.5528 21.9503 39.1949 27.0962C38.3287 30.3945 38.9888 33.7173 39.2458 37.0467L39.2591 37.2172C39.5205 40.4182 40.2471 43.6036 39.7974 46.8577C39.3034 50.4019 37.5955 53.5032 34.2883 55.3484C34.2033 55.3963 34.1152 55.4385 34.0247 55.4747C33.6166 55.6429 33.2685 55.9299 33.0256 56.2985C32.7826 56.667 32.6561 57.1001 32.6623 57.5414V59.9781C33.2368 59.965 33.81 59.9184 34.3791 59.8385C37.7262 59.3955 40.2471 57.0674 42.0413 54.1766C43.8356 51.2858 44.6154 48.0516 44.5666 44.7112C44.5489 43.4574 44.7594 43.0586 46.0397 43.0675C47.2418 43.077 48.4431 43.003 49.6349 42.846C50.8886 42.6801 52.1291 42.4269 53.3476 42.0884C60.27 40.1391 63.8209 33.2676 61.2934 26.5224Z" fill="#3085D4"/>
</g>
<path d="M181.391 9.23633L172.69 25.9956V35.5292H168.377V25.9956L159.638 9.23633H164.442L170.533 22.1368L176.624 9.23633H181.391Z" fill="#3085D4"/>
<path d="M150.133 22.4017L158.305 35.5292H153.462L147.523 25.9956L141.962 35.5292H137.157L145.329 22.4017L137.119 9.23633H141.962L147.939 18.8455L153.538 9.23633H158.343L150.133 22.4017Z" fill="#3085D4"/>
<path d="M125.503 35.7946C123.057 35.7946 120.8 35.2272 118.732 34.0922C116.689 32.932 115.062 31.3305 113.851 29.2876C112.666 27.2195 112.073 24.8992 112.073 22.3266C112.073 19.7541 112.666 17.4464 113.851 15.4035C115.062 13.3606 116.689 11.7717 118.732 10.6367C120.8 9.47657 123.057 8.89648 125.503 8.89648C127.975 8.89648 130.232 9.47657 132.275 10.6367C134.343 11.7717 135.97 13.3606 137.155 15.4035C138.341 17.4464 138.934 19.7541 138.934 22.3266C138.934 24.8992 138.341 27.2195 137.155 29.2876C135.97 31.3305 134.343 32.932 132.275 34.0922C130.232 35.2272 127.975 35.7946 125.503 35.7946ZM125.503 32.0493C127.244 32.0493 128.795 31.6584 130.157 30.8765C131.519 30.0695 132.578 28.9345 133.334 27.4717C134.116 25.9837 134.507 24.2687 134.507 22.3266C134.507 20.3846 134.116 18.6822 133.334 17.2194C132.578 15.7566 131.519 14.6343 130.157 13.8524C128.795 13.0706 127.244 12.6796 125.503 12.6796C123.763 12.6796 122.212 13.0706 120.85 13.8524C119.488 14.6343 118.416 15.7566 117.634 17.2194C116.878 18.6822 116.5 20.3846 116.5 22.3266C116.5 24.2687 116.878 25.9837 117.634 27.4717C118.416 28.9345 119.488 30.0695 120.85 30.8765C122.212 31.6584 123.763 32.0493 125.503 32.0493Z" fill="#3085D4"/>
<path d="M105.537 35.5292L99.484 25.012H96.1927V35.5292H91.8799V9.23633H100.959C102.977 9.23633 104.68 9.58942 106.067 10.2956C107.479 11.0018 108.526 11.9476 109.207 13.133C109.913 14.3183 110.266 15.6424 110.266 17.1053C110.266 18.8203 109.762 20.384 108.753 21.7964C107.769 23.1835 106.243 24.1293 104.175 24.6337L110.682 35.5292H105.537ZM96.1927 21.5694H100.959C102.574 21.5694 103.784 21.1658 104.591 20.3588C105.424 19.5517 105.84 18.4672 105.84 17.1053C105.84 15.7433 105.436 14.6841 104.629 13.9274C103.822 13.1456 102.599 12.7546 100.959 12.7546H96.1927V21.5694Z" fill="#3085D4"/>
<path d="M90.0355 17.0674C90.0355 18.4041 89.7202 19.6652 89.0897 20.8506C88.4592 22.036 87.4503 23.007 86.0632 23.7636C84.676 24.495 82.898 24.8607 80.729 24.8607H75.9622V35.5292H71.6494V9.23633H80.729C82.7466 9.23633 84.449 9.58942 85.8362 10.2956C87.2486 10.9766 88.2952 11.9097 88.9762 13.0951C89.6824 14.2805 90.0355 15.6046 90.0355 17.0674ZM80.729 21.3424C82.3683 21.3424 83.5915 20.9767 84.3986 20.2453C85.2057 19.4886 85.6092 18.4294 85.6092 17.0674C85.6092 14.1922 83.9825 12.7546 80.729 12.7546H75.9622V21.3424H80.729Z" fill="#3085D4"/>
<path d="M88.9072 50.9371V41.2617H94.7263V42.5057H90.2618V45.3807H94.284V46.597H90.2618V49.6931H94.7539V50.9371H88.9072Z" fill="#0C0C0C"/>
<path d="M168.122 50.9371V41.2617H173.941V42.5057H169.477V45.3807H173.499V46.597H169.477V49.6931H173.969V50.9371H168.122Z" fill="#0C0C0C"/>
<path d="M151.889 50.9371V41.2617H153.285L158.758 48.6703V41.2617H160.127V50.9371H158.758L153.243 43.4594V50.9371H151.889Z" fill="#0C0C0C"/>
<path d="M142.543 50.9371V41.2617H143.898V50.9371H142.543Z" fill="#0C0C0C"/>
<path d="M131.157 51.1028C130.236 51.1028 129.416 50.8909 128.697 50.467C127.978 50.0339 127.416 49.4442 127.011 48.6978C126.605 47.9422 126.402 47.076 126.402 46.0993C126.402 45.1225 126.605 44.2609 127.011 43.5146C127.416 42.759 127.973 42.1692 128.683 41.7453C129.393 41.3122 130.208 41.0957 131.129 41.0957C131.728 41.0957 132.3 41.2063 132.843 41.4274C133.387 41.6394 133.871 41.9388 134.295 42.3259C134.728 42.7037 135.06 43.146 135.29 43.6528L134.074 44.2057C133.898 43.8279 133.659 43.5007 133.355 43.2243C133.051 42.9479 132.705 42.7313 132.318 42.5747C131.94 42.418 131.544 42.3397 131.129 42.3397C130.484 42.3397 129.909 42.5009 129.402 42.8235C128.895 43.146 128.499 43.5883 128.213 44.1504C127.927 44.7125 127.785 45.3621 127.785 46.0993C127.785 46.8364 127.927 47.4907 128.213 48.062C128.508 48.6333 128.909 49.0802 129.416 49.4027C129.932 49.716 130.517 49.8727 131.171 49.8727C131.595 49.8727 131.996 49.7897 132.373 49.6239C132.751 49.4488 133.088 49.2138 133.382 48.919C133.687 48.6149 133.931 48.2693 134.115 47.8823L135.331 48.4214C135.101 48.9466 134.774 49.4119 134.35 49.8174C133.926 50.2228 133.438 50.5407 132.885 50.7711C132.341 50.9923 131.765 51.1028 131.157 51.1028Z" fill="#0C0C0C"/>
<path d="M117.688 50.9371V41.2617H119.042V50.9371H117.688Z" fill="#0C0C0C"/>
<path d="M102.604 50.9371V41.2617H105.589C106.511 41.2617 107.326 41.469 108.036 41.8837C108.754 42.2892 109.316 42.8559 109.722 43.5838C110.127 44.3118 110.33 45.1503 110.33 46.0994C110.33 47.0393 110.127 47.8732 109.722 48.6012C109.316 49.3292 108.754 49.9005 108.036 50.3151C107.326 50.7298 106.511 50.9371 105.589 50.9371H102.604ZM103.958 49.6655H105.589C106.059 49.6655 106.497 49.578 106.902 49.4029C107.308 49.2186 107.662 48.9652 107.966 48.6427C108.28 48.3109 108.519 47.9285 108.685 47.4954C108.86 47.0624 108.948 46.597 108.948 46.0994C108.948 45.6018 108.86 45.1365 108.685 44.7034C108.519 44.2703 108.28 43.8925 107.966 43.57C107.662 43.2383 107.308 42.9849 106.902 42.8098C106.497 42.6255 106.059 42.5333 105.589 42.5333H103.958V49.6655Z" fill="#0C0C0C"/>
<path d="M71.6494 50.9371V41.2617H73.0869L76.2936 46.0027L79.4865 41.2617H80.924V50.9371H79.5694V43.4456L76.2798 48.2971L73.004 43.4594V50.9371H71.6494Z" fill="#0C0C0C"/>
<defs>
<clipPath id="clip0_494_8934">
<rect width="61.4975" height="60" fill="white" transform="translate(0.609375)"/>
</clipPath>
</defs>
</svg>
